<svg xmlns="http://www.w3.org/2000/svg" width="28" height="25" viewBox="0 0 28 25">
    <path fill="#FFF" fill-rule="evenodd" d="M15 9c0 1.093.25 2.127.697 3.049-.368.115-.644.44-.69.834L15 13v9c0 .552.448 1 1 1 .513 0 .936-.386.993-.883L17 22v-8.102c.574.587 1.25 1.072 2 1.428V22c0 .552.448 1 1 1 .513 0 .936-.386.993-.883L21 22v-6.07c.327.046.66.07 1 .07 1.106 0 2.153-.257 3.083-.714l-1.744 8.133C23.14 24.341 22.326 25 21.383 25H6.617c-.888 0-1.662-.584-1.915-1.421l-.04-.16L2.213 12H1.5C.672 12 0 11.328 0 10.5c0-.78.595-1.42 1.356-1.493L1.5 9H15zm-3 3c-.513 0-.936.386-.993.883L11 13v9c0 .552.448 1 1 1 .513 0 .936-.386.993-.883L13 22v-9c0-.552-.448-1-1-1zm-4 0c-.513 0-.936.386-.993.883L7 13v9c0 .552.448 1 1 1 .513 0 .936-.386.993-.883L9 22v-9c0-.552-.448-1-1-1zm14-9c3.314 0 6 2.686 6 6s-2.686 6-6 6-6-2.686-6-6 2.686-6 6-6zm0 2c-.513 0-.936.386-.993.883L21 6v2h-2l-.117.007c-.497.057-.883.48-.883.993s.386.936.883.993L19 10h2v2l.007.117c.057.497.48.883.993.883s.936-.386.993-.883L23 12v-2h2l.117-.007c.497-.057.883-.48.883-.993s-.386-.936-.883-.993L25 8h-2V6l-.007-.117C22.936 5.386 22.513 5 22 5zM12.555.168c.426.284.564.84.336 1.286l-.059.1-4 6c-.306.46-.927.584-1.387.278-.426-.284-.564-.84-.336-1.286l.059-.1 4-6c.306-.46.927-.584 1.387-.278zm4.207.184l.07.093 1.663 2.494c-.583.338-1.113.758-1.574 1.244l-1.753-2.628-.06-.101c-.227-.446-.09-1.002.337-1.286.427-.285.993-.198 1.317.184z"/>
</svg>
