<svg xmlns="http://www.w3.org/2000/svg" width="26" height="20" viewBox="0 0 26 20">
    <path fill="#FFF" d="M22 0c2.21 0 4 1.79 4 4v12c0 2.21-1.79 4-4 4H4c-2.21 0-4-1.79-4-4V4c0-2.21 1.79-4 4-4h18zM9.621 11.793l-6.138 6.14c.119.031.242.052.368.062L4 18h18c.179 0 .352-.023.516-.067l-6.138-6.14-2.64 2.883c-.369.401-.983.43-1.386.086l-.09-.086-2.641-2.883zm14.325-8.255l-6.214 6.779 6.2 6.2c.032-.119.053-.242.063-.368L24 16V4c0-.159-.019-.313-.054-.462zm-21.94.313L2 4v12c0 .179.023.352.067.516l6.2-6.199-6.213-6.779c-.024.102-.04.206-.049.313zM22 2H4c-.197 0-.388.029-.568.082L13 12.519l9.568-10.437c-.135-.04-.274-.066-.419-.077L22 2z"/>
</svg>
